<?xml version="1.0" encoding="UTF-8"?>
<svg xmlns="http://www.w3.org/2000/svg" xmlns:xlink="http://www.w3.org/1999/xlink" width="49.214" height="31.701" viewBox="0 0 49.214 31.701">
<defs>
<clipPath id="clip-0">
<path clip-rule="nonzero" d="M 2.835938 2.832031 L 18 2.832031 L 18 28.867188 L 2.835938 28.867188 Z M 2.835938 2.832031 "/>
</clipPath>
<clipPath id="clip-1">
<path clip-rule="nonzero" d="M 2.835938 6 L 46.378906 6 L 46.378906 28.867188 L 2.835938 28.867188 Z M 2.835938 6 "/>
</clipPath>
</defs>
<g clip-path="url(#clip-0)">
<path fill="none" stroke-width="0.3985" stroke-linecap="butt" stroke-linejoin="miter" stroke="rgb(0%, 0%, 0%)" stroke-opacity="1" stroke-miterlimit="10" d="M -3.173031 22.678594 C -5.313656 19.362188 -5.313656 15.108281 -3.173031 11.791875 C -2.821469 11.245 -2.399594 10.721563 -1.813656 10.4325 C -0.274594 9.666875 1.487125 10.702031 1.362125 12.245 C 1.241031 13.690313 -0.469906 14.424688 -1.813656 13.608281 C -2.473812 13.202031 -2.856625 12.498906 -3.173031 11.791875 C -5.30975 7.061406 -5.473812 1.674688 -3.630062 -3.172969 " transform="matrix(1, 0, 0, -1, 10.091, 25.62)"/>
</g>
<g clip-path="url(#clip-1)">
<path fill="none" stroke-width="0.3985" stroke-linecap="butt" stroke-linejoin="miter" stroke="rgb(0%, 0%, 0%)" stroke-opacity="1" stroke-miterlimit="10" d="M -7.255062 -0.00109375 C -1.688656 -0.00109375 4.041813 -0.16125 9.073063 2.268438 C 11.084781 3.241094 12.94025 4.674688 13.608219 6.803594 C 14.651188 10.147344 12.412906 13.600469 9.073063 13.608281 C 5.717594 13.612188 3.459781 10.147344 4.534 6.803594 C 5.217594 4.686406 7.088688 3.287969 9.073063 2.268438 C 11.881656 0.823125 14.979313 -0.00109375 18.143375 -0.00109375 C 21.303531 -0.00109375 24.401187 0.823125 27.213687 2.268438 C 29.198062 3.287969 31.069156 4.686406 31.748844 6.803594 C 32.823062 10.143438 30.569156 13.608281 27.213687 13.608281 C 23.862125 13.604375 21.612125 10.143438 22.678531 6.803594 C 23.354312 4.686406 25.225406 3.280156 27.213687 2.268438 C 30.026187 0.83875 33.12775 0.0614063 36.284 -0.00109375 " transform="matrix(1, 0, 0, -1, 10.091, 25.62)"/>
</g>
</svg>
